<?xml version="1.0" encoding="UTF-8" standalone="no"?>
<!-- Created with Inkscape (http://www.inkscape.org/) -->

<svg
   xmlns:dc="http://purl.org/dc/elements/1.1/"
   xmlns:cc="http://creativecommons.org/ns#"
   xmlns:rdf="http://www.w3.org/1999/02/22-rdf-syntax-ns#"
   xmlns:svg="http://www.w3.org/2000/svg"
   xmlns="http://www.w3.org/2000/svg"
   xmlns:inkscape="http://www.inkscape.org/namespaces/inkscape"
   version="1.1"
   width="24"
   height="24"
   id="svg4460"
   inkscape:version="0.91 r13725">
  <defs
     id="defs4462" />
  <metadata
     id="metadata4465">
    <rdf:RDF>
      <cc:Work
         rdf:about="">
        <dc:format>image/svg+xml</dc:format>
        <dc:type
           rdf:resource="http://purl.org/dc/dcmitype/StillImage" />
        <dc:title />
      </cc:Work>
    </rdf:RDF>
  </metadata>
  <path
     style="color:#000000;display:inline;overflow:visible;visibility:visible;fill:#000000;fill-opacity:1;fill-rule:nonzero;stroke:none;stroke-width:2;stroke-opacity:1;marker:none;enable-background:accumulate"
     id="path5304"
     inkscape:connector-curvature="0"
     d="M 7.5,2 C 7,2 7,2.5 7,2.5 l 0,6 c 0,0.5 0.5,1 1,1.5 0.5,0.5 0.5,1 0.5,1.5 0,0 0,1 0,1.5 0,0.5 -0.5,6.5 -0.5,6.5 -0.0383,0.4985 0.5,1.5 1.5,1.5 1,0 1.53846,-1 1.5,-1.5 0,0 -0.5,-6 -0.5,-6.5 0,-0.5 0,-1.5 0,-1.5 0,-0.5 0,-1 0.5,-1.5 0.46054,-0.460539 1,-1 1,-1.5 l 0,-6 C 12,2.5 12,2 11.5,2 11,2 11,2.5 11,2.5 L 11,7 C 11,7 11,7.5 10.5,7.5 10,7.5 10,7 10,7 L 10,2.5 C 10,2.5 10,2 9.5,2 9,2 9,2.5 9,2.5 L 9,7 C 9,7 9,7.5 8.5,7.5 8,7.5 8,7 8,7 L 8,2.5 C 8,2.5 8,2 7.5,2 Z M 18,2 C 17,2 15.13246,2.2351 14.5,3.5 14,4.5 14,7 14,8 l 0,5 c 0,0.5 0.5,1 1,1 l 1,0 0,6 c 0,0.5 0.5,1 1,1 0.5,0 1,-0.5 1,-1 z" />
</svg>
